# xmcd CD database file
# Copyright (C) 1995 Ti Kan
#
# Track frame offsets:
#	182
#	11252
#	23017
#	34077
#	45430
#	56987
#	68417
#	79500
#	91552
#	106347
#	118587
#	130805
#	145530
#	159397
#	173100
#	185720
#
# Disc length: 2655 seconds
#
# Revision: 2
# Processed by: cddbd v1.4b41PL1 Copyright (c) Steve Scherf et al.
# Submitted via: NotifyCDPlayer(CDDB) 1.05
#
DISCID=ba0a5d10
DTITLE=Johnny 'Guitar' Watson - I Heard That!
DYEAR=1900
DGENRE=
TTITLE0=Highway 60
TTITLE1=Motor Head Baby
TTITLE2=No I Can't
TTITLE3=What's Going On?
TTITLE4=Walking To My Baby
TTITLE5=Thinking
TTITLE6=I Got Eyes
TTITLE7=Space Guitar
TTITLE8=Half Pint-A-Whisky
TTITLE9=Gettin' Drunk
TTITLE10=You Can't Take It With You
TTITLE11=Cuttin' In
TTITLE12=Sweet Lovin' Mama
TTITLE13=In The Evening
TTITLE14=Those Lonely, Lonely Feelings
TTITLE15=Gangster Of Love
EXTD=
EXTT0=
EXTT1=
EXTT2=
EXTT3=
EXTT4=
EXTT5=
EXTT6=
EXTT7=
EXTT8=
EXTT9=
EXTT10=
EXTT11=
EXTT12=
EXTT13=
EXTT14=
EXTT15=
PLAYORDER=
